<svg width="244" height="36" viewBox="0 0 244 36" fill="none" xmlns="http://www.w3.org/2000/svg">
<path d="M16.9677 35V8.984H26.2797V2.984H0.743747V8.984H10.1037V35H16.9677ZM37.1137 35.576C40.7137 35.576 44.3617 34.472 46.6657 32.36L43.9777 28.424C42.4897 29.864 39.7537 30.728 37.7857 30.728C33.8497 30.728 31.4977 28.28 31.1137 25.352H48.3457V24.008C48.3457 16.424 43.6417 11.24 36.7297 11.24C29.6737 11.24 24.7297 16.664 24.7297 23.384C24.7297 30.824 30.0577 35.576 37.1137 35.576ZM42.4417 21.224H31.0177C31.3057 18.92 32.9377 16.088 36.7297 16.088C40.7617 16.088 42.2977 19.016 42.4417 21.224ZM73.165 35V20.024C73.165 13.352 68.317 11.24 63.037 11.24C59.389 11.24 55.741 12.392 52.909 14.888L55.213 18.968C57.181 17.144 59.485 16.232 61.981 16.232C65.053 16.232 67.069 17.768 67.069 20.12V23.24C65.533 21.416 62.797 20.408 59.725 20.408C56.029 20.408 51.661 22.472 51.661 27.896C51.661 33.08 56.029 35.576 59.725 35.576C62.749 35.576 65.485 34.472 67.069 32.6V35H73.165ZM62.173 31.448C59.773 31.448 57.805 30.2 57.805 28.04C57.805 25.784 59.773 24.536 62.173 24.536C64.141 24.536 66.061 25.208 67.069 26.552V29.432C66.061 30.776 64.141 31.448 62.173 31.448ZM114.507 35V18.248C114.507 13.496 111.963 11.24 107.691 11.24C104.139 11.24 101.067 13.352 99.7235 15.464C98.8595 12.824 96.6995 11.24 93.2915 11.24C89.7395 11.24 86.6675 13.448 85.7075 14.84V11.816H79.6115V35H85.7075V19.4C86.6195 18.104 88.3955 16.664 90.5075 16.664C93.0035 16.664 93.9635 18.2 93.9635 20.36V35H100.107V19.352C100.971 18.104 102.747 16.664 104.907 16.664C107.403 16.664 108.363 18.2 108.363 20.36V35H114.507Z" fill="#2F80ED"/>
<path d="M129.238 35V24.632H134.038C141.382 24.632 145.03 19.592 145.03 13.832C145.03 8.024 141.382 2.984 134.038 2.984H120.166V35H129.238ZM132.934 16.712H129.238V10.904H132.934C134.614 10.904 135.814 11.912 135.814 13.784C135.814 15.704 134.614 16.712 132.934 16.712ZM152.155 9.944C154.699 9.944 156.763 7.928 156.763 5.384C156.763 2.84 154.699 0.775997 152.155 0.775997C149.611 0.775997 147.595 2.84 147.595 5.384C147.595 7.928 149.611 9.944 152.155 9.944ZM156.235 35V11.816H148.123V35H156.235ZM170.983 35.576C175.111 35.576 177.943 33.848 179.143 32.36L175.303 26.792C174.487 27.704 173.431 28.424 171.943 28.424C169.543 28.424 167.719 26.504 167.719 23.384C167.719 20.216 169.543 18.392 171.943 18.392C173.431 18.392 174.487 19.064 175.303 19.976L179.143 14.408C177.943 12.92 175.111 11.24 170.983 11.24C164.263 11.24 159.463 16.088 159.463 23.384C159.463 30.68 164.263 35.576 170.983 35.576ZM204.48 35L197.424 22.184L204 11.816H194.592L190.176 20.216V2.984H182.064V35H190.176V29.912L191.808 27.272L195.024 35H204.48ZM216.271 35.576C219.391 35.576 223.039 34.52 225.247 32.36L221.791 27.512C220.687 28.568 218.479 29.24 217.183 29.24C214.351 29.24 212.959 27.656 212.671 25.976H226.687V23.768C226.687 16.136 222.607 11.24 215.935 11.24C208.927 11.24 204.607 16.664 204.607 23.384C204.607 30.824 209.359 35.576 216.271 35.576ZM219.007 20.648H212.623C212.767 19.304 213.439 17.576 215.791 17.576C218.239 17.576 218.863 19.352 219.007 20.648ZM237.851 35V20.552C238.763 19.304 240.779 18.68 242.315 18.68C242.939 18.68 243.515 18.776 243.899 18.92V11.144C241.787 11.144 238.955 12.728 237.851 14.456V11.816H229.739V35H237.851Z" fill="#2D9CDB"/>
</svg>
